# xmcd
#
# Track frame offsets: 
#        150
#        102140
#        197410
#        250662
#
# Disc length: 4330 seconds
#
# Revision: 3
# Processed by: cddbd v1.5.2PL0 Copyright (c) Steve Scherf et al.
# Submitted via: ExactAudioCopy v1.0b3
#
DISCID=2610e804
DTITLE=Jethro Tull - Thick As A Brick
DYEAR=1971
DGENRE=Progressive Rock
TTITLE0=Thick As A Brick, Part 1
TTITLE1=Thick As A Brick, Part 2
TTITLE2=Thick As A Brick (Live At Madison Square Garden 1978)
TTITLE3=Interview With Jethro Tull's Ian Anderson, Martin Barre, And J
TTITLE3=effrey Hammond
EXTD=
EXTT0={Anderson} \n
EXTT1={Anderson} \n
EXTT2={Anderson} \n
EXTT3=
PLAYORDER=
